<svg xmlns="http://www.w3.org/2000/svg" viewBox="0 0 32 32">
	<rect width="32" height="32" fill="#0f62fe"/>
	<path transform="translate(5.33 21.58)" d="M6.70-11.17L10.42 0L8.22 0L7.33-2.85L3.36-2.85L2.48 0L0.34 0L4.08-11.17L6.70-11.17M3.87-4.66L6.82-4.66L5.90-7.47L5.38-9.25L5.30-9.25L4.77-7.47L3.87-4.66M21.01 0L19.18 0L19.18-1.73L19.12-1.73Q18.98-0.91 18.22-0.36Q17.46 0.19 16.19 0.19Q14.88 0.19 13.84-0.46Q12.80-1.12 12.19-2.40Q11.58-3.68 11.58-5.55Q11.58-7.42 12.21-8.72Q12.83-10.02 13.95-10.69Q15.07-11.36 16.56-11.36Q18.05-11.36 19.12-10.70Q20.19-10.03 20.78-8.82L19.07-7.81Q18.77-8.54 18.16-9.02Q17.55-9.49 16.56-9.49Q15.74-9.49 15.13-9.14Q14.51-8.80 14.17-8.14Q13.82-7.47 13.82-6.48L13.82-4.69Q13.82-3.71 14.17-3.04Q14.51-2.37 15.14-2.02Q15.76-1.68 16.59-1.68Q17.25-1.68 17.79-1.90Q18.34-2.11 18.66-2.54Q18.98-2.96 18.98-3.58L18.98-4.30L16.78-4.30L16.78-6.08L21.01-6.08" fill="#ffffff"/>
</svg>
